<svg width="576" height="620" viewBox="0 0 81 87" fill="none" xmlns="http://www.w3.org/2000/svg">
<path d="M27.1252 64.9525C27.8987 62.2233 29.9742 60.5981 30.8692 59.9766C28.7311 63.4958 28.5156 66.1937 28.9189 68.1891C30.1887 74.4744 38.2871 77.2018 37.3488 80.9366C37.0367 82.1787 35.858 83.001 34.882 83.5093C35.4925 82.8942 36.2061 81.9633 36.242 80.8169C36.3415 77.6254 30.8333 76.9293 28.1317 71.794C27.6068 70.7959 26.2358 68.0915 27.1252 64.9516V64.9525ZM52.4056 35.6197C42.7336 28.9799 38.5394 18.6965 41.4169 11.0419C41.985 9.53091 43.6065 6.05307 48.3283 3.15625C40.1204 5.85326 34.3912 11.3909 34.0119 17.4626C33.9345 18.7103 34.0579 20.3751 34.8387 22.3465C34.1665 22.1835 33.324 21.8539 32.5938 21.1651C31.0073 19.6698 30.5865 17.086 31.4355 14.5455C29.6243 17.2407 29.3978 19.3714 29.4825 20.7324C29.8996 27.4247 39.0026 33.8877 52.4056 35.6207V35.6197ZM46.6654 83.3573C45.0218 83.5249 43.8367 82.1133 43.5154 80.9725C43.0402 79.2865 44.2538 77.5886 45.5789 76.7856C47.1111 75.8584 48.7409 76.1586 49.1285 76.2405C46.996 75.0334 43.3294 76.2893 42.369 78.1935C43.5273 73.1743 38.5983 72.7341 35.7356 68.667C32.266 64.1671 35.9556 60.4056 40.2944 58.7381C30.3876 60.0999 30.1924 67.4939 35.9704 73.2544C39.6922 76.3759 41.6047 78.5821 39.6121 82.9144C39.7217 82.8306 41.2189 81.7091 42.1461 82.1621C43.0421 82.5995 43.3892 84.5 42.2042 86.628C43.0006 86.5322 44.1387 86.3554 45.4766 86.0028C47.4711 85.477 48.4803 85.198 49.0816 84.4181C50.0889 83.1115 49.5153 81.2542 49.3228 80.7036C49.1101 82.1391 47.9711 83.2247 46.6645 83.3583L46.6654 83.3573ZM74.8279 43.1085C74.547 42.9631 74.0627 42.6656 73.6566 42.1233C73.1216 41.4097 73.0323 40.6859 73.013 40.3729C71.8924 40.7292 71.1548 41.8314 72.036 43.0957C72.9669 43.1003 73.8979 43.1049 74.8279 43.1085ZM80.3876 45.9676C80.0055 45.0256 79.0653 44.1527 78.756 43.6085C77.7882 42.418 77.9825 40.3195 77.9926 40.0119C78.0368 38.6455 75.6262 36.2339 64.5711 31.6557C64.98 32.3758 65.3897 33.0958 65.7986 33.815C63.2167 32.862 59.8613 31.3362 56.3494 28.874C53.2564 26.7055 50.9462 24.4431 49.2961 22.5739C50.5033 24.6973 52.4913 27.5932 55.6542 30.3685C60.3493 34.489 65.2884 36.2855 68.1318 37.0884C68.0637 36.4632 67.9946 35.837 67.9265 35.2118C71.9135 36.7772 77.5055 38.918 75.849 43.2522C78.7836 44.5689 79.9696 47.7374 77.8858 49.6849C76.4696 44.3691 68.304 44.4575 65.1116 46.3055C70.9145 45.0781 75.9982 46.5937 76.71 52.0329C78.2679 51.7281 81.5211 49.0937 80.3876 45.9685V45.9676ZM50.9904 76.9164C52.4029 76.8133 54.1192 78.6825 53.029 80.4191C55.8374 79.0959 53.6192 75.2866 50.9904 76.9164ZM47.8505 77.5388C49.1838 77.5315 51.7058 79.2055 51.5051 81.4006C53.5944 78.9872 50.9333 76.2267 47.8505 77.5388ZM23.5894 74.0656C23.1465 72.062 22.5563 68.1228 23.7689 63.4185C24.8711 59.1442 26.9604 56.1829 28.2348 54.6286C26.7965 55.7952 22.2386 59.1838 15.5527 59.3256C7.03537 59.506 1.48944 54.2805 0.443416 53.2566C1.84026 55.0153 5.96725 59.7224 12.9469 61.2924C16.131 62.0087 18.9081 61.8467 20.8445 61.552C20.7487 62.4719 20.7073 63.4811 20.758 64.5639C20.9513 68.7038 22.397 71.9773 23.5894 74.0665V74.0656ZM17.9357 23.6006C17.3004 27.654 17.9633 31.037 18.5536 33.0922C17.8206 32.9292 16.9275 32.617 16.0518 32.0075C12.9828 29.8712 12.7885 25.9367 12.7673 25.3188C12.6559 26.4348 11.9147 35.1962 17.9891 40.6436C24.338 46.3359 35.6407 46.1757 43.9233 38.9162C42.1756 38.732 31.1942 37.4061 25.7026 28.6199C25.4918 28.2829 25.1971 27.7939 24.8794 27.1632C24.1732 25.7571 23.3417 23.6485 23.0885 20.9902C22.5747 15.6035 24.7671 11.4968 25.7127 9.93605C24.0995 11.3237 19.1346 15.9571 17.9366 23.5997L17.9357 23.6006ZM39.4611 56.2004C43.3257 55.135 46.5245 54.88 48.8256 54.8634C52.5566 54.8367 54.6901 55.4315 56.1882 53.9785C57.6495 52.5614 56.8033 50.8469 58.1274 48.52C59.435 46.2217 61.8428 45.1131 63.6955 44.5339C59.0979 45.1463 56.9663 46.8405 55.8733 48.3359C54.6349 50.0292 54.9765 51.1314 53.5603 52.3017C51.6331 53.8956 49.6239 52.9914 45.9002 53.6728C44.3745 53.9518 42.1093 54.5789 39.4611 56.2013V56.2004ZM3.99584 39.8839C3.91204 41.7623 4.03083 43.4713 4.24261 44.9685C3.79695 44.929 3.10267 44.8102 2.35222 44.4225C1.24819 43.8516 0.639545 43.0183 0.375278 42.6012C0.365149 44.2568 0.625733 46.8009 2.23344 49.0559C6.133 54.5245 14.6918 53.7161 17.4495 53.4555C22.396 52.9877 26.303 51.067 28.9429 49.3405C28.3748 49.4537 18.8768 51.1682 12.1117 43.9446C5.44885 36.8306 7.61455 27.6411 7.77109 27.0232C6.23981 29.7257 4.24813 34.1769 3.99492 39.8839H3.99584ZM31.2983 5.54755C31.9474 6.02545 32.5202 7.09817 32.2384 9.68376C32.8102 8.43608 34.1141 6.0411 36.7512 4.04298C40.0394 1.55131 43.4491 1.15445 44.8174 1.06974C41.8165 0.402161 37.9317 0.0135867 33.6021 0.846904C18.5517 3.7428 11.5804 18.8088 10.6679 20.8622C11.8299 18.9874 13.6448 16.3973 16.3041 13.726C20.7626 9.2473 28.5838 3.54759 31.2992 5.54755H31.2983Z" fill="#61439D"/>
</svg>
