<?xml version="1.0" encoding="UTF-8" standalone="no"?>
<!-- Created with Inkscape (http://www.inkscape.org/) -->

<svg
   version="1.1"
   id="svg182"
   width="1569.7542"
   height="630.67065"
   viewBox="0 0 1569.7541 630.67065"
   sodipodi:docname="cropped-logo-redibujado.svg"
   inkscape:version="1.2.1 (9c6d41e410, 2022-07-14)"
   xmlns:inkscape="http://www.inkscape.org/namespaces/inkscape"
   xmlns:sodipodi="http://sodipodi.sourceforge.net/DTD/sodipodi-0.dtd"
   xmlns="http://www.w3.org/2000/svg"
   xmlns:svg="http://www.w3.org/2000/svg">
  <defs
     id="defs186" />
  <sodipodi:namedview
     id="namedview184"
     pagecolor="#ffffff"
     bordercolor="#999999"
     borderopacity="1"
     inkscape:showpageshadow="0"
     inkscape:pageopacity="0"
     inkscape:pagecheckerboard="0"
     inkscape:deskcolor="#d1d1d1"
     showgrid="false"
     inkscape:zoom="0.44775087"
     inkscape:cx="365.15842"
     inkscape:cy="305.97372"
     inkscape:window-width="1920"
     inkscape:window-height="1017"
     inkscape:window-x="-8"
     inkscape:window-y="-8"
     inkscape:window-maximized="1"
     inkscape:current-layer="g188" />
  <g
     inkscape:groupmode="layer"
     inkscape:label="Image"
     id="g188"
     transform="translate(-672.75691,-157.92416)">
    <path
       style="fill:#000000"
       d="m 1341.2858,760.84712 c 0.2261,-0.4316 14.7748,-32.6309 32.3304,-71.5541 l 31.9193,-70.7694 10.3506,0.2694 10.3506,0.2694 27.8972,61.5 c 15.3434,33.825 29.9036,65.8875 32.356,71.25 l 4.4589,9.75 h -10.8307 -10.8308 l -7.8907,-17.75 -7.8907,-17.75 h -37.8673 -37.8674 l -7.6772,17.5 -7.6771,17.5 -10.7711,0.2847 c -5.9242,0.1565 -10.5861,-0.068 -10.36,-0.5 z m 104.4769,-52.5347 c -2.162,-5.552 -29.1082,-66.4265 -29.6748,-67.0388 -0.4015,-0.4338 -6.5104,12.3912 -13.5753,28.5 -7.0649,16.1089 -13.8818,31.6513 -15.1486,34.5388 l -2.3033,5.25 h 30.5944 c 24.0684,0 30.4905,-0.2666 30.1076,-1.25 z m 99.7503,52.2137 c -0.3754,-0.6075 -14.5664,-32.6853 -31.5354,-71.2841 l -30.8528,-70.1796 10.6198,-0.2855 c 5.841,-0.157 10.9631,0.068 11.3825,0.5 0.4195,0.4321 12.0912,26.6605 25.9372,58.2855 13.8461,31.625 25.2656,57.5992 25.3767,57.7205 0.1111,0.1212 11.5551,-25.5288 25.4311,-57 13.8759,-31.4713 25.5885,-57.7995 26.028,-58.5073 0.5855,-0.943 3.4715,-1.2102 10.8,-1 l 10.001,0.2868 -31.1084,71 -31.1084,71 -10.1443,0.2841 c -6.6154,0.1853 -10.3818,-0.1001 -10.827,-0.8204 z m 75.7728,0.321 c 0.2261,-0.4316 14.7748,-32.6309 32.3304,-71.5541 l 31.9193,-70.7694 10.3506,0.2694 10.3506,0.2694 27.8972,61.5 c 15.3434,33.825 29.9036,65.8875 32.356,71.25 l 4.4589,9.75 h -10.8307 -10.8308 l -7.8907,-17.75 -7.8907,-17.75 h -37.8673 -37.8674 l -7.6772,17.5 -7.6771,17.5 -10.7711,0.2847 c -5.9242,0.1565 -10.5861,-0.068 -10.36,-0.5 z m 104.4769,-52.5347 c -2.162,-5.552 -29.1082,-66.4265 -29.6748,-67.0388 -0.4015,-0.4338 -6.5104,12.3912 -13.5753,28.5 -7.0649,16.1089 -13.8818,31.6513 -15.1486,34.5388 l -2.3033,5.25 h 30.5944 c 24.0684,0 30.4905,-0.2666 30.1076,-1.25 z m 67.2728,-18.25 v -71.5 h 8.2508 8.2508 l 42.4992,52.8604 42.4992,52.8603 0.2588,-52.8603 0.2587,-52.8604 h 9.9913 9.9912 v 71.5 71.5 h -8.2508 -8.2508 l -42.4992,-52.8603 -42.4992,-52.8603 -0.2588,52.8603 -0.2587,52.8603 h -9.9913 -9.9912 z m 152,64.1407 v -7.3594 l 44.2843,-54.8906 44.2844,-54.8907 -43.7844,-0.2604 -43.7843,-0.2604 v -8.9896 -8.9896 h 57.5 57.5 v 7.2565 7.2565 l -44.1329,54.9935 -44.1329,54.9935 45.6329,0.2601 45.6329,0.2601 v 8.9899 8.9899 h -59.5 -59.5 z m 125.2503,6.644 c 0.2261,-0.4316 14.7748,-32.6309 32.3304,-71.5541 l 31.9193,-70.7694 10.3506,0.2694 10.3506,0.2694 27.8972,61.5 c 15.3434,33.825 29.9036,65.8875 32.356,71.25 l 4.4589,9.75 h -10.8307 -10.8308 l -7.8907,-17.75 -7.8907,-17.75 h -37.8673 -37.8674 l -7.6772,17.5 -7.6771,17.5 -10.7711,0.2847 c -5.9242,0.1565 -10.5861,-0.068 -10.36,-0.5 z m 104.4769,-52.5347 c -2.162,-5.552 -29.1082,-66.4265 -29.6748,-67.0388 -0.4015,-0.4338 -6.5104,12.3912 -13.5753,28.5 -7.0649,16.1089 -13.8818,31.6513 -15.1486,34.5388 l -2.3033,5.25 h 30.5944 c 24.0684,0 30.4905,-0.2666 30.1076,-1.25 z m -1477.72719,-243.75 v -105 h 19.5 19.5 v 88.5 88.5 h 55.00002 55 v 16.5 16.5 h -74.50002 -74.5 z m 180.00002,0 v -105 h 19.5 19.5 v 105 105 h -19.5 -19.5 z m 95,0 v -105 h 53.74997 c 54.9352,0 65.1729,0.5273 78.925,4.0429 17.5371,4.4831 32.3368,15.3442 38.3143,28.1178 10.8438,23.1726 3.2844,52.8876 -16.7511,65.8467 l -4.2619,2.7565 7.2855,3.4599 c 8.6197,4.0935 17.883,12.313 22.4699,19.938 4.1606,6.9163 7.2683,19.1227 7.2683,28.548 0,32.2341 -21.7563,51.506 -63.5,56.2485 -5.0952,0.5789 -33.8389,1.0261 -66.25,1.0307 l -57.24997,0.01 z m 127.15327,71.2157 c 8.4653,-2.8453 15.9421,-9.3005 18.5246,-15.9935 2.2494,-5.8296 2.3085,-17.219 0.1157,-22.2949 -2.2661,-5.2455 -7.2691,-10.4949 -12.3435,-12.9514 -10.4933,-5.0797 -12.4645,-5.2857 -54.7001,-5.7146 l -39.75,-0.4038 v 30.1231 30.123 l 40.75,-0.3258 c 39.0748,-0.3125 41.0235,-0.4178 47.4033,-2.5621 z m -21.559,-88.2921 c 11.0739,-1.5402 17.8367,-4.3653 23.4433,-9.793 6.4163,-6.2116 8.7692,-13.6751 7.2074,-22.8623 -1.8133,-10.6672 -7.1473,-16.6645 -19.1002,-21.4751 -5.4485,-2.1929 -6.9057,-2.283 -41.8948,-2.5896 l -36.25,-0.3177 v 29.0571 29.057 h 29.4276 c 16.1852,0 32.9103,-0.4843 37.1667,-1.0764 z m 123.4057,17.0764 v -105 h 76.5 76.5 v 16.5 16.5 h -57 -57 v 27 27 h 50.5 50.5 v 16 16 h -50.5 -50.5 v 29 29 h 59 59 v 16.5 16.5 h -78.5 -78.5 z m 201,-0.07 v -105.07 l 53.25,0.4113 c 58.1266,0.4489 58.8917,0.5169 75.9564,6.7447 22.7198,8.2917 38.2724,24.7535 44.4052,47.0011 2.5008,9.072 2.5683,31.9087 0.121,40.9829 -5.1233,18.9969 -17.7855,34.4855 -35.202,43.0596 -3.5918,1.7682 -6.5306,3.3597 -6.5306,3.5365 0,0.1768 10.575,15.3909 23.5,33.8091 12.925,18.4181 23.5,33.7366 23.5,34.0412 0,0.3045 -9.3431,0.5536 -20.7625,0.5536 h -20.7625 l -21.3932,-30.5 -21.3932,-30.5 h -27.8443 -27.8443 v 30.5 30.5 h -19.5 -19.5 z m 100.5786,10.5864 c 15.4733,-2.9606 26.0811,-10.017 31.4487,-20.9202 10.4154,-21.1566 2.9078,-46.3556 -16.5335,-55.494 -10.5671,-4.9672 -14.2435,-5.4328 -46.2438,-5.8563 l -30.25,-0.4003 v 42.0772 42.0772 h 26.912 c 19.6393,0 29.0077,-0.4009 34.6666,-1.4836 z m 158.4214,5.9836 v -88.5 h -35 -35 v -16.5 -16.5 h 89.5 89.5 v 16.5 16.5 h -35 -35 v 88.5 88.5 h -19.5 -19.5 z m 106.0384,68.75 c 4.8898,-10.8625 26.119,-58.102 47.1761,-104.9767 l 38.2855,-85.2268 19.5,0.01 19.5,0.01 46.5,103.111 c 25.575,56.7111 46.8264,103.9554 47.2253,104.9874 0.6969,1.8031 -0.078,1.8659 -19.8435,1.6062 l -20.5687,-0.2702 -6.478,-15 c -3.5628,-8.25 -8.2948,-19.1625 -10.5154,-24.25 l -4.0375,-9.25 h -51.7686 c -40.2296,0 -51.9855,0.2786 -52.7414,1.25 -0.5349,0.6875 -5.3842,11.7125 -10.7762,24.5 l -9.8036,23.25 h -20.2722 -20.2722 l 8.8904,-19.75 z m 142.4231,-63 c -7.3612,-17.6342 -36.8975,-85.9168 -37.4242,-86.5177 -0.4985,-0.5689 -34.2738,76.8837 -38.6005,88.5177 -0.6128,1.648 1.6308,1.75 38.4696,1.75 h 39.1204 z m 103.5385,-22.25 v -105 h 50.75 c 30.6811,0 54.309,0.4368 59.75,1.1002 26.4358,3.2232 50.4816,14.205 66.875,30.5422 19.0664,19.0007 28.625,43.4957 28.625,73.3546 0,24.0789 -5.9809,43.9942 -18.4695,61.5 -16.391,22.9759 -44.4624,38.4262 -77.0305,42.3971 -5.441,0.6634 -29.0689,1.0984 -59.75,1.1001 h -50.75 z m 113.5,69.1613 c 27.089,-7.4259 44.1042,-23.8065 51.1256,-49.2191 2.4825,-8.985 2.4825,-30.8993 0,-39.8843 -7.0214,-25.4126 -24.0366,-41.7932 -51.1256,-49.2191 -7.3106,-2.004 -10.8655,-2.2279 -41.25,-2.5977 l -33.25,-0.4048 v 72.1637 72.1638 l 33.25,-0.4048 c 30.3845,-0.3698 33.9394,-0.5937 41.25,-2.5977 z M 696.03551,246.56242 v -62 h 9 9 v 54.5 54.5 h 33.5 33.5 v 7.5 7.5 h -42.5 -42.5 z m 88,61.6246 c 0,-0.2477 12.51882,-28.0521 27.81952,-61.7875 l 27.8195,-61.3371 8.9897,-0.285 8.9896,-0.285 27.859,61.285 c 15.3224,33.7068 28.0348,61.6225 28.2498,62.035 0.215,0.4125 -3.8639,0.75 -9.0642,0.75 h -9.455 l -6.7936,-15.5132 -6.7935,-15.5132 -32.9809,0.2632 -32.9808,0.2632 -6.6568,15 -6.6568,15 -9.1727,0.2876 c -5.04512,0.1581 -9.17282,0.085 -9.17282,-0.163 z m 91.00002,-45.097 c 0,-0.8169 -25.2235,-57.9891 -25.9339,-58.7825 -0.5664,-0.6325 -6.2648,11.8054 -24.7421,54.0049 l -2.2988,5.25 h 26.4874 c 14.5681,0 26.4874,-0.2125 26.4874,-0.4724 z"
       id="path293"
       sodipodi:nodetypes="sscccsscccccccccsssssscsssscssssssscccsssscccsscccccccccsssssscssccccccccccccccccccccccccccccccccccccccccccsscccsscccccccccsssssscssccccccccccccccccccccccccsssscsssssccssssscccssssssscccsscccccccccccccccccccccccccccsssssssssccccccccccsssscccsscccccccccccccccccsscccssscsscsssccccssssscsccsssssssccssssscccsscccccccccccccsscccssscccccccssssscss" />
  </g>
</svg>
