<?xml version="1.0" standalone="no"?>
<!DOCTYPE svg PUBLIC "-//W3C//DTD SVG 20010904//EN"
 "http://www.w3.org/TR/2001/REC-SVG-20010904/DTD/svg10.dtd">
<svg version="1.0" xmlns="http://www.w3.org/2000/svg"
 width="128.000000pt" height="128.000000pt" viewBox="0 0 128.000000 128.000000"
 preserveAspectRatio="xMidYMid meet">
<metadata>
Created by potrace 1.14, written by Peter Selinger 2001-2017
</metadata>
<g transform="translate(0.000000,128.000000) scale(0.100000,-0.100000)"
fill="#000000" stroke="none">
<path d="M285 961 c-96 -25 -172 -87 -217 -179 -30 -60 -33 -75 -32 -152 0
-98 20 -150 84 -223 78 -88 233 -130 342 -91 56 19 127 65 133 86 4 9 -14 48
-43 92 l-48 76 -25 -26 c-73 -80 -186 -74 -240 13 -57 92 2 214 109 227 35 4
99 -22 123 -50 9 -10 59 -87 112 -170 111 -173 131 -196 206 -231 228 -108
489 75 468 328 -3 37 -10 75 -15 86 -5 10 -15 30 -22 45 -63 134 -237 208
-385 164 -53 -16 -145 -75 -145 -92 0 -6 23 -46 50 -88 l50 -77 30 35 c33 37
67 51 120 47 102 -7 163 -111 121 -207 -42 -95 -175 -115 -242 -38 -9 11 -61
89 -115 174 -109 170 -124 187 -202 226 -56 29 -159 40 -217 25z"/>
</g>
</svg>
