<svg xmlns="http://www.w3.org/2000/svg" height="32" width="32" fill="none" viewBox="-1 0 32 32">
    <g fill="none">
        <path d="M21 2.66602H7.66667C3.98477 2.66602 1 5.65078 1 9.33268V22.666C1 26.3479 3.98477 29.3327 7.66667 29.3327H21C24.6819 29.3327 27.6667 26.3479 27.6667 22.666V9.33268C27.6667 5.65078 24.6819 2.66602 21 2.66602Z" stroke="#C0C4D7" stroke-width="2.66667" stroke-linecap="round" stroke-linejoin="round"/>
        <path d="M19.6656 15.1604C19.8302 16.2701 19.6406 17.4034 19.124 18.3991C18.6073 19.3948 17.7898 20.2023 16.7878 20.7066C15.7858 21.211 14.6502 21.3865 13.5427 21.2083C12.4351 21.0301 11.412 20.5072 10.6187 19.714C9.82551 18.9207 9.3026 17.8976 9.12438 16.79C8.94616 15.6825 9.12171 14.5469 9.62606 13.5449C10.1304 12.5429 10.9379 11.7254 11.9336 11.2087C12.9293 10.6921 14.0626 10.5025 15.1723 10.6671C16.3042 10.8349 17.3521 11.3624 18.1612 12.1715C18.9703 12.9806 19.4978 14.0285 19.6656 15.1604Z" stroke="#C0C4D7" stroke-width="2.66667" stroke-linecap="round" stroke-linejoin="round"/>
        <path d="M21.666 8.66602H21.6785" stroke="#C0C4D7" stroke-width="2.66667" stroke-linecap="round" stroke-linejoin="round"/>
    </g>
</svg>