<svg width="29" height="25" viewBox="0 0 29 25" fill="none" xmlns="http://www.w3.org/2000/svg">
<path d="M28.3333 0.999736C27.0565 1.90037 25.6428 2.58922 24.1467 3.03974C23.3437 2.11642 22.2764 1.46199 21.0894 1.16497C19.9023 0.86795 18.6527 0.942663 17.5094 1.37901C16.3662 1.81535 15.3846 2.59227 14.6973 3.60469C14.01 4.61711 13.6503 5.81618 13.6667 7.03974V8.37307C11.3235 8.43383 9.0017 7.91415 6.90801 6.86033C4.81432 5.80651 3.01376 4.25125 1.66667 2.33307C1.66667 2.33307 -3.66667 14.3331 8.33333 19.6664C5.58737 21.5304 2.31621 22.465 -1 22.3331C11 28.9997 25.6667 22.3331 25.6667 6.99974C25.6654 6.62834 25.6297 6.25786 25.56 5.89307C26.9208 4.55106 27.8811 2.85669 28.3333 0.999736Z" fill="#C0C4D7"/>
</svg>
