<svg width="60" height="60" viewBox="0 0 60 60" fill="none" xmlns="http://www.w3.org/2000/svg">
<path d="M30 60C46.5685 60 60 46.5685 60 30C60 13.4315 46.5685 0 30 0C13.4315 0 0 13.4315 0 30C0 46.5685 13.4315 60 30 60Z" fill="#714FB6"/>
<path d="M21.8942 43.001C22.363 41.3469 23.6208 40.362 24.1633 39.9853C22.8675 42.1182 22.7369 43.7533 22.9813 44.9626C23.7509 48.7719 28.659 50.4248 28.0903 52.6883C27.9011 53.4411 27.1868 53.9395 26.5953 54.2475C26.9653 53.8747 27.3978 53.3106 27.4195 52.6158C27.4798 50.6815 24.1415 50.2597 22.5042 47.1474C22.1861 46.5424 21.3551 44.9034 21.8942 43.0005V43.001ZM37.2157 25.2236C31.3538 21.1994 28.8119 14.967 30.5558 10.3279C30.9001 9.41216 31.8829 7.30438 34.7446 5.54873C29.7701 7.18328 26.2978 10.5394 26.0679 14.2193C26.021 14.9754 26.0958 15.9844 26.5691 17.1792C26.1617 17.0804 25.6511 16.8806 25.2085 16.4632C24.247 15.5569 23.9919 13.991 24.5065 12.4513C23.4088 14.0848 23.2715 15.3761 23.3228 16.2009C23.5756 20.2569 29.0926 24.1739 37.2157 25.2241V25.2236ZM33.7367 54.1554C32.7406 54.257 32.0224 53.4015 31.8276 52.7101C31.5397 51.6883 32.2752 50.6592 33.0782 50.1726C34.0068 49.6106 34.9946 49.7926 35.2295 49.8422C33.9371 49.1106 31.7149 49.8718 31.1328 51.0259C31.8349 47.9839 28.8476 47.7172 27.1126 45.2522C25.0098 42.525 27.246 40.2453 29.8755 39.2347C23.8714 40.0601 23.7531 44.5413 27.2549 48.0325C29.5106 49.9243 30.6697 51.2614 29.462 53.887C29.5284 53.8362 30.4358 53.1565 30.9978 53.4311C31.5408 53.6962 31.7512 54.848 31.0329 56.1377C31.5157 56.0796 32.2054 55.9725 33.0163 55.7587C34.225 55.4401 34.8367 55.271 35.2011 54.7983C35.8116 54.0064 35.4639 52.8808 35.3473 52.5471C35.2184 53.4171 34.5281 54.0751 33.7362 54.156L33.7367 54.1554ZM50.8049 29.7622C50.6347 29.6741 50.3411 29.4938 50.095 29.1651C49.7708 28.7326 49.7167 28.294 49.705 28.1043C49.0258 28.3202 48.5788 28.9882 49.1129 29.7544C49.6771 29.7572 50.2413 29.76 50.8049 29.7622ZM54.1744 31.495C53.9428 30.9241 53.3731 30.3951 53.1856 30.0653C52.599 29.3437 52.7168 28.0719 52.7229 27.8855C52.7497 27.0573 51.2887 25.5958 44.5887 22.8211C44.8365 23.2575 45.0848 23.6939 45.3326 24.1298C43.7678 23.5522 41.7342 22.6275 39.6058 21.1352C37.7313 19.821 36.3311 18.4499 35.3311 17.317C36.0627 18.6039 37.2676 20.359 39.1845 22.041C42.03 24.5383 45.0234 25.627 46.7467 26.1137C46.7054 25.7347 46.6636 25.3553 46.6223 24.9763C49.0386 25.925 52.4277 27.2225 51.4238 29.8493C53.2023 30.6473 53.9211 32.5676 52.6582 33.7479C51.7999 30.5262 46.8511 30.5798 44.9163 31.6998C48.4332 30.9559 51.5142 31.8745 51.9456 35.1709C52.8898 34.9862 54.8614 33.3896 54.1744 31.4956V31.495ZM36.3579 50.2518C37.214 50.1893 38.2542 51.3222 37.5935 52.3747C39.2955 51.5728 37.9512 49.2641 36.3579 50.2518ZM34.4549 50.6291C35.263 50.6246 36.7915 51.6392 36.6699 52.9696C37.9361 51.5069 36.3233 49.8339 34.4549 50.6291ZM19.7513 48.5241C19.4829 47.3098 19.1251 44.9224 19.8601 42.0713C20.5281 39.4808 21.7943 37.6861 22.5667 36.7441C21.695 37.4511 18.9326 39.5048 14.8806 39.5907C9.71854 39.7001 6.35736 36.5331 5.72341 35.9126C6.56998 36.9785 9.07119 39.8313 13.3013 40.7827C15.231 41.2169 16.9141 41.1187 18.0877 40.9401C18.0297 41.4976 18.0046 42.1092 18.0353 42.7655C18.1524 45.2745 19.0286 47.2584 19.7513 48.5247V48.5241ZM16.3248 17.9393C15.9397 20.3958 16.3416 22.4461 16.6993 23.6917C16.2551 23.5929 15.7137 23.4037 15.183 23.0343C13.323 21.7396 13.2053 19.355 13.1924 18.9806C13.1249 19.657 12.6757 24.9669 16.3572 28.2683C20.205 31.7182 27.0551 31.6211 32.0748 27.2214C31.0156 27.1098 24.3603 26.3062 21.032 20.9812C20.9042 20.777 20.7256 20.4806 20.5331 20.0984C20.1051 19.2462 19.6012 17.9683 19.4477 16.3572C19.1363 13.0925 20.465 10.6036 21.0382 9.6577C20.0604 10.4987 17.0514 13.3068 16.3254 17.9387L16.3248 17.9393ZM29.3705 37.6967C31.7127 37.051 33.6514 36.8964 35.0459 36.8864C37.3072 36.8702 38.6002 37.2307 39.5082 36.3501C40.3938 35.4912 39.8809 34.4521 40.6834 33.0419C41.4759 31.649 42.9352 30.9771 44.058 30.6261C41.2716 30.9972 39.9797 32.024 39.3173 32.9303C38.5667 33.9566 38.7737 34.6246 37.9155 35.3339C36.7474 36.2999 35.5298 35.7519 33.273 36.1648C32.3483 36.3339 30.9755 36.714 29.3705 37.6972V37.6967ZM7.87639 27.8079C7.82561 28.9464 7.8976 29.9821 8.02595 30.8895C7.75585 30.8655 7.33508 30.7935 6.88026 30.5586C6.21115 30.2126 5.84228 29.7076 5.68211 29.4548C5.67598 30.4581 5.83391 32 6.80827 33.3667C9.17164 36.681 14.3588 36.1911 16.0302 36.0331C19.028 35.7496 21.3959 34.5855 22.9958 33.5392C22.6515 33.6078 16.8951 34.6469 12.7951 30.269C8.757 25.9574 10.0696 20.388 10.1644 20.0136C9.23638 21.6514 8.0293 24.3491 7.87583 27.8079H7.87639ZM24.4233 6.998C24.8168 7.28763 25.1639 7.93777 24.9931 9.50479C25.3397 8.74863 26.1299 7.29712 27.7281 6.08614C29.721 4.57604 31.7874 4.33552 32.6167 4.28417C30.798 3.87958 28.4436 3.64408 25.8196 4.14912C16.6982 5.90421 12.4731 15.0351 11.9201 16.2796C12.6243 15.1434 13.7243 13.5736 15.3359 11.9547C18.038 9.24027 22.7782 5.7859 24.4239 6.998H24.4233Z" fill="white"/>
</svg>
