<svg width="126" height="124" viewBox="0 0 126 124" fill="none" xmlns="http://www.w3.org/2000/svg">
<g clip-path="url(#clip0_2_9350)">
<path d="M63 123.667C97.3107 123.667 125.125 95.983 125.125 61.8334C125.125 27.6838 97.3107 6.10352e-05 63 6.10352e-05C28.6893 6.10352e-05 0.875 27.6838 0.875 61.8334C0.875 95.983 28.6893 123.667 63 123.667Z" fill="none"/>
<path d="M46.2145 88.63C47.1852 85.2207 49.7901 83.1906 50.9133 82.4142C48.2299 86.8103 47.9595 90.1805 48.4657 92.673C50.0593 100.524 60.2232 103.931 59.0456 108.597C58.6538 110.148 57.1746 111.175 55.9496 111.81C56.7158 111.042 57.6114 109.879 57.6565 108.447C57.7813 104.46 50.8683 103.591 47.4776 97.1761C46.8189 95.9293 45.0982 92.5511 46.2145 88.6288V88.63ZM77.9427 51.9887C65.8038 43.6945 60.5398 30.8489 64.1512 21.2871C64.8643 19.3996 66.8993 15.0552 72.8255 11.4367C62.5241 14.8056 55.3337 21.723 54.8576 29.3076C54.7605 30.8661 54.9153 32.9457 55.8953 35.4083C55.0517 35.2047 53.9943 34.793 53.0779 33.9326C51.0867 32.0646 50.5586 28.8371 51.6241 25.6637C49.3509 29.0304 49.0666 31.692 49.1729 33.392C49.6965 41.7518 61.1211 49.8251 77.9427 51.9898V51.9887ZM70.7384 111.621C68.6756 111.83 67.1883 110.067 66.7849 108.641C66.1886 106.535 67.7118 104.414 69.3747 103.411C71.2977 102.253 73.3432 102.628 73.8297 102.73C71.1533 101.223 66.5515 102.791 65.3462 105.17C66.8 98.9003 60.6138 98.3505 57.0209 93.27C52.6665 87.6489 57.2971 82.9502 62.7425 80.8672C50.3089 82.5683 50.064 91.8046 57.3156 99.0003C61.9867 102.9 64.387 105.655 61.8862 111.067C62.0237 110.963 63.9028 109.562 65.0665 110.128C66.1909 110.674 66.6266 113.048 65.1393 115.706C66.1389 115.586 67.5673 115.366 69.2465 114.925C71.7496 114.268 73.0162 113.92 73.7708 112.946C75.0351 111.313 74.3151 108.993 74.0736 108.306C73.8066 110.099 72.3771 111.455 70.7372 111.622L70.7384 111.621ZM106.084 61.3434C105.731 61.1617 105.123 60.7901 104.614 60.1127C103.942 59.2212 103.83 58.3172 103.806 57.9261C102.4 58.3712 101.474 59.748 102.58 61.3273C103.748 61.333 104.917 61.3388 106.084 61.3434ZM113.061 64.9148C112.582 63.7381 111.402 62.6477 111.014 61.968C109.799 60.4807 110.043 57.8594 110.056 57.4752C110.111 55.7683 107.086 52.7559 93.211 47.037C93.7241 47.9365 94.2384 48.8359 94.7515 49.7343C91.5111 48.5438 87.2999 46.6379 82.8923 43.5622C79.0105 40.8534 76.111 38.0274 74.0401 35.6924C75.5551 38.3448 78.0501 41.9623 82.0198 45.429C87.9124 50.5762 94.1112 52.8203 97.6799 53.8233C97.5944 53.0423 97.5077 52.2601 97.4222 51.4791C102.426 53.4345 109.444 56.1088 107.365 61.5228C111.048 63.1676 112.537 67.1255 109.922 69.5582C108.144 62.918 97.896 63.0285 93.8894 65.3369C101.172 63.8037 107.553 65.697 108.446 72.4913C110.401 72.1106 114.484 68.8198 113.061 64.916V64.9148ZM76.1664 103.575C77.9392 103.446 80.0933 105.781 78.725 107.95C82.2497 106.297 79.4658 101.539 76.1664 103.575ZM72.2257 104.352C73.8991 104.343 77.0644 106.434 76.8124 109.176C79.4346 106.162 76.0948 102.713 72.2257 104.352ZM41.7768 100.014C41.221 97.5108 40.4802 92.5902 42.0022 86.7137C43.3855 81.3744 46.0076 77.6753 47.6071 75.7338C45.8019 77.1911 40.0815 81.4239 31.6904 81.601C21.0007 81.8265 14.0403 75.299 12.7275 74.0199C14.4806 76.2169 19.6602 82.0968 28.4199 84.0579C32.4161 84.9527 35.9016 84.7503 38.3319 84.3822C38.2117 85.5313 38.1597 86.7919 38.2232 88.1446C38.4659 93.316 40.2803 97.405 41.7768 100.015V100.014ZM34.6812 36.9749C33.8838 42.0382 34.7159 46.2641 35.4566 48.8313C34.5367 48.6278 33.4158 48.2378 32.3168 47.4764C28.465 44.8079 28.2212 39.893 28.1946 39.1212C28.0547 40.5153 27.1245 51.4596 34.7482 58.2643C42.7164 65.3749 56.9019 65.1748 67.2969 56.1065C65.1035 55.8764 51.3213 54.2201 44.429 43.2447C44.1644 42.8238 43.7946 42.213 43.3959 41.4251C42.5095 39.6687 41.466 37.0347 41.1482 33.714C40.5033 26.9853 43.2549 21.8553 44.4418 19.9057C42.4171 21.6391 36.1858 27.427 34.6824 36.9738L34.6812 36.9749ZM61.6966 77.6972C66.5469 76.3664 70.5616 76.0478 73.4495 76.0271C78.1322 75.9937 80.8098 76.7367 82.69 74.9217C84.524 73.1515 83.462 71.0098 85.1238 68.1032C86.7648 65.2323 89.7868 63.8474 92.112 63.1239C86.3419 63.8888 83.6666 66.0052 82.2948 67.8732C80.7405 69.9884 81.1692 71.3652 79.3918 72.8272C76.9731 74.8182 74.4515 73.6887 69.778 74.5398C67.8631 74.8883 65.0203 75.6716 61.6966 77.6983V77.6972ZM17.1859 57.3153C17.0808 59.6618 17.2298 61.7966 17.4956 63.6668C16.9363 63.6174 16.065 63.469 15.1231 62.9848C13.7375 62.2716 12.9736 61.2307 12.6419 60.7096C12.6292 62.7777 12.9563 65.9558 14.974 68.7726C19.8682 75.6038 30.6099 74.5939 34.071 74.2684C40.2791 73.6841 45.1825 71.2847 48.4957 69.1281C47.7827 69.2695 35.8623 71.4112 27.3718 62.3878C19.0095 53.5012 21.7276 42.0221 21.9241 41.2503C20.0022 44.6262 17.5026 50.1863 17.1848 57.3153H17.1859ZM51.4519 14.4238C52.2666 15.0207 52.9854 16.3607 52.6318 19.5905C53.3494 18.032 54.9858 15.0403 58.2956 12.5443C62.4224 9.43183 66.7017 8.93609 68.419 8.83027C64.6528 7.99636 59.7771 7.51097 54.3433 8.55191C35.4543 12.1693 26.705 30.9892 25.5597 33.5542C27.0181 31.2123 29.2959 27.9768 32.6334 24.64C38.229 19.0453 48.045 11.9255 51.453 14.4238H51.4519Z" fill="white"/>
</g>
<defs>
<clipPath id="clip0_2_9350">
<rect width="124.25" height="123.667" fill="white" transform="translate(0.875 6.10352e-05)"/>
</clipPath>
</defs>
</svg>
